<svg width="355" height="114" viewBox="0 0 355 114" fill="none" xmlns="http://www.w3.org/2000/svg">
<g clip-path="url(#clip0_827_1343)">
<path d="M42.7673 86.3761C40.609 86.9152 37.7611 87.4911 34.2196 88.0996C30.6781 88.7081 26.5816 89.0103 21.9263 89.0103C17.8788 89.0103 14.472 88.4181 11.7097 87.2379C8.94344 86.0576 6.7198 84.3872 5.03472 82.2268C3.34965 80.0664 2.13378 77.518 1.39121 74.5816C0.648631 71.6452 0.277344 68.3903 0.277344 64.8087V35.2407H9.68602V62.783C9.68602 69.1989 10.6979 73.7852 12.7216 76.5542C14.7453 79.3231 18.1481 80.7076 22.9381 80.7076C23.95 80.7076 24.9945 80.6749 26.0757 80.6055C27.1529 80.5401 28.1647 80.4544 29.1113 80.3523C30.0538 80.2502 30.9147 80.1481 31.6899 80.0501C32.4651 79.948 33.02 79.8336 33.3587 79.6948V35.2407H42.7673V86.3761Z" fill="#212492"/>
<path d="M55.25 36.7557C57.4084 36.2167 60.2726 35.6408 63.8508 35.0323C67.425 34.4238 71.5377 34.1216 76.1931 34.1216C80.3752 34.1216 83.8473 34.7138 86.6136 35.894C89.3758 37.0743 91.5872 38.7283 93.2397 40.8561C94.8921 42.9838 96.0549 45.5322 96.7281 48.5012C97.4014 51.4744 97.74 54.7456 97.74 58.3232V87.8912H88.3313V60.3489C88.3313 57.1103 88.111 54.3413 87.6744 52.0461C87.2338 49.7509 86.5116 47.8927 85.4997 46.4756C84.4879 45.0585 83.1374 44.0293 81.4523 43.3881C79.7672 42.7469 77.6741 42.4243 75.1812 42.4243C74.1693 42.4243 73.1249 42.4611 72.0436 42.5264C70.9624 42.5958 69.9342 42.6775 68.9591 42.7796C67.9799 42.8817 67.1026 43.0001 66.3274 43.1349C65.5522 43.2697 64.9973 43.3718 64.6587 43.4371V87.8912H55.25V36.7557Z" fill="#212492"/>
<path d="M118.563 16.344C117.388 15.225 115.944 14.6777 114.267 14.6777C112.59 14.6777 111.146 15.225 109.958 16.344C108.783 17.463 108.188 18.9659 108.188 20.8527C108.188 22.7395 108.783 24.2424 109.958 25.3492C111.146 26.4682 112.578 27.0277 114.267 27.0277C115.956 27.0277 117.388 26.4682 118.563 25.3492C119.738 24.2424 120.334 22.7395 120.334 20.8527C120.334 18.9659 119.738 17.463 118.563 16.344Z" fill="#212492"/>
<path d="M184.067 35.2324V87.8871H174.658V43.1349H161.129V35.2324H184.067Z" fill="#212492"/>
<path d="M194.848 61.6678C194.848 57.4164 195.472 53.5856 196.72 50.1755C197.969 46.7695 199.74 43.8821 202.033 41.5175C204.326 39.1569 207.092 37.3314 210.327 36.049C213.563 34.7667 217.207 34.1255 221.254 34.1255C225.636 34.1255 229.5 34.4481 232.837 35.0893C236.175 35.7305 238.957 36.3227 241.181 36.8618V108.299H231.772V85.5672C230.626 86.3105 228.888 87.0864 226.562 87.8951C224.236 88.7037 221.556 89.1121 218.52 89.1121C214.742 89.1121 211.388 88.4382 208.455 87.0864C205.521 85.7387 203.045 83.8478 201.021 81.4179C198.997 78.9879 197.463 76.0842 196.418 72.7109C195.374 69.3375 194.852 65.6578 194.852 61.6719L194.848 61.6678ZM204.66 61.6678C204.66 64.3673 204.93 66.883 205.468 69.2109C206.007 71.5388 206.884 73.5644 208.1 75.2878C209.316 77.0113 210.882 78.359 212.804 79.3391C214.726 80.3193 217.035 80.8053 219.732 80.8053C222.429 80.8053 224.653 80.3683 226.815 79.4902C228.973 78.6122 230.626 77.7015 231.772 76.7581V43.5431C230.826 43.2736 229.565 43.0367 227.978 42.8325C226.391 42.6283 224.183 42.5303 221.352 42.5303C216.293 42.5303 212.245 44.1843 209.214 47.4923C206.178 50.8003 204.66 55.5255 204.66 61.6678Z" fill="#212492"/>
<path d="M296.775 86.3761C294.617 86.9152 291.769 87.4911 288.227 88.0996C284.686 88.7081 280.589 89.0103 275.934 89.0103C271.887 89.0103 268.48 88.4181 265.718 87.2379C262.951 86.0576 260.728 84.3872 259.043 82.2268C257.357 80.0664 256.142 77.518 255.399 74.5816C254.656 71.6452 254.285 68.3903 254.285 64.8087V35.2407H263.694V62.783C263.694 69.1989 264.706 73.7852 266.729 76.5542C268.753 79.3231 272.156 80.7076 276.946 80.7076C277.958 80.7076 279.002 80.6749 280.084 80.6055C281.161 80.5401 282.173 80.4544 283.119 80.3523C284.062 80.2502 284.923 80.1481 285.698 80.0501C286.473 79.948 287.028 79.8336 287.366 79.6948V35.2407H296.775V86.3761Z" fill="#212492"/>
<path d="M308.793 61.6679C308.793 57.0081 309.466 52.9445 310.817 49.465C312.163 45.9895 313.954 43.1022 316.178 40.807C318.402 38.5118 320.964 36.7924 323.865 35.6448C326.766 34.4972 329.732 33.9214 332.768 33.9214C339.851 33.9214 345.277 36.1349 349.055 40.5538C352.834 44.9767 354.723 51.7112 354.723 60.7531V62.3213C354.723 62.9625 354.69 63.5547 354.621 64.0938H318.606C319.01 69.5622 320.593 73.7115 323.359 76.5499C326.125 79.3842 330.442 80.8013 336.309 80.8013C339.614 80.8013 342.397 80.5154 344.653 79.9396C346.913 79.3678 348.615 78.8083 349.761 78.2692L351.075 86.1676C349.929 86.7762 347.921 87.4173 345.057 88.0912C342.189 88.765 338.937 89.104 335.293 89.104C330.707 89.104 326.746 88.4097 323.408 87.0294C320.071 85.6449 317.321 83.7377 315.162 81.3077C313.004 78.8777 311.4 75.9904 310.356 72.6497C309.311 69.309 308.789 65.6457 308.789 61.6638L308.793 61.6679ZM344.91 56.5017C344.975 52.2503 343.914 48.7544 341.723 46.0222C339.532 43.29 336.513 41.9219 332.67 41.9219C330.511 41.9219 328.606 42.3425 326.954 43.1879C325.301 44.0333 323.902 45.1278 322.755 46.4796C321.609 47.8314 320.715 49.3833 320.075 51.1394C319.434 52.8955 319.014 54.6843 318.81 56.5058H344.91V56.5017Z" fill="#212492"/>
<path d="M132.825 35.2324V43.1349H119.014V87.8871H109.605V35.2324H132.825Z" fill="#212492"/>
<path d="M179.313 27.0238C177.628 27.0238 176.192 26.4683 175.013 25.3534C173.834 24.2385 173.242 22.7397 173.242 20.8488C173.242 18.9579 173.83 17.455 175.013 16.3442C176.192 15.2292 177.624 14.6738 179.313 14.6738C181.003 14.6738 182.431 15.2292 183.614 16.3442C184.793 17.4591 185.385 18.962 185.385 20.8488C185.385 22.7356 184.793 24.2426 183.614 25.3534C182.435 26.4683 180.998 27.0238 179.313 27.0238Z" fill="#212492"/>
<path d="M168.57 1.15178V9.37282C167.289 9.05427 165.722 8.90724 163.923 8.90724C159.541 8.90724 156.456 10.1079 154.71 12.5093C152.96 14.8943 152.078 18.1289 152.078 22.1842V34.6077H152.127V92.0161C152.127 98.771 150.479 103.99 147.162 107.662C143.861 111.35 138.663 113.183 131.584 113.183C129.552 113.183 127.753 113.085 126.219 112.848V104.627C127.5 104.946 129.067 105.093 130.882 105.093C135.248 105.093 138.333 103.892 140.079 101.491C141.829 99.0895 142.71 95.8713 142.71 91.816V79.3884H142.661V21.9841C142.661 15.2292 144.326 10.0099 147.627 6.33842C150.944 2.6506 156.126 0.816895 163.205 0.816895C165.253 0.816895 167.036 0.918994 168.57 1.15178Z" fill="#212492"/>
</g>
<defs>
<clipPath id="clip0_827_1343">
<rect width="355" height="114" fill="white"/>
</clipPath>
</defs>
</svg>
